<svg width="10" height="10" viewBox="0 0 10 10" fill="none" xmlns="http://www.w3.org/2000/svg">
<path fill-rule="evenodd" clip-rule="evenodd" d="M9.74761 1.47164L8.83515 2.3841L6.21918 5.00007L8.83502 7.61591L9.74748 8.52838C10.0841 8.86504 10.0841 9.41087 9.74748 9.74753C9.41083 10.0842 8.865 10.0842 8.52834 9.74753L7.61587 8.83506L5.00004 6.21922L2.38423 8.83502L1.47177 9.74749C1.13511 10.0841 0.58928 10.0842 0.252622 9.74749C-0.0840365 9.41083 -0.0840361 8.865 0.252622 8.52834L1.16509 7.61588L3.78089 5.00007L1.16496 2.38413L0.252494 1.47167C-0.0841646 1.13501 -0.0841645 0.589178 0.252494 0.252519C0.589152 -0.0841394 1.13498 -0.0841394 1.47164 0.252519L2.3841 1.16499L5.00004 3.78092L7.616 1.16495L8.52846 0.252486C8.86512 -0.0841723 9.41095 -0.0841723 9.74761 0.252486C10.0843 0.589145 10.0843 1.13498 9.74761 1.47164Z" fill="#D0CFD7"/>
</svg>
